/* XPM */
static char * pyrocket_icon_xpm[] = {
"31 32 264 2",
"  	c None",
". 	c #39291F",
"+ 	c #94837F",
"@ 	c #060504",
"# 	c #0E0E0B",
"$ 	c #414339",
"% 	c #FF3B1E",
"& 	c #FE6A31",
"* 	c #FFCE61",
"= 	c #FFFF8F",
"- 	c #FFFF9E",
"; 	c #FFFFB9",
"> 	c #91854C",
", 	c #2F201A",
"' 	c #786866",
") 	c #372F24",
"! 	c #18150F",
"~ 	c #1A1A11",
"{ 	c #253024",
"] 	c #332521",
"^ 	c #30251E",
"/ 	c #1C120E",
"( 	c #120B08",
"_ 	c #1F0E0D",
": 	c #CA933E",
"< 	c #FEB84F",
"[ 	c #FFCA5D",
"} 	c #FFF786",
"| 	c #FFFFA8",
"1 	c #FFFF95",
"2 	c #FFFF99",
"3 	c #C4B969",
"4 	c #5A463F",
"5 	c #957F7B",
"6 	c #221D16",
"7 	c #171410",
"8 	c #040302",
"9 	c #010000",
"0 	c #000000",
"a 	c #0A100A",
"b 	c #050302",
"c 	c #100808",
"d 	c #020000",
"e 	c #040303",
"f 	c #3C2323",
"g 	c #F14B2E",
"h 	c #FF7F45",
"i 	c #FFAD4E",
"j 	c #FDC142",
"k 	c #FFFC7C",
"l 	c #FFFFAC",
"m 	c #FFFF9C",
"n 	c #6B5839",
"o 	c #4D3C3A",
"p 	c #8E7B7B",
"q 	c #14110D",
"r 	c #17140F",
"s 	c #030202",
"t 	c #050403",
"u 	c #0B0705",
"v 	c #010101",
"w 	c #010300",
"x 	c #020701",
"y 	c #030B02",
"z 	c #0D130A",
"A 	c #0D0707",
"B 	c #160D0D",
"C 	c #020101",
"D 	c #040101",
"E 	c #130807",
"F 	c #40250D",
"G 	c #FEB150",
"H 	c #FFD262",
"I 	c #FFF876",
"J 	c #FFFFA7",
"K 	c #FFFFAE",
"L 	c #FFFE86",
"M 	c #8E7B2D",
"N 	c #483825",
"O 	c #52423E",
"P 	c #050303",
"Q 	c #040604",
"R 	c #010501",
"S 	c #000300",
"T 	c #000200",
"U 	c #0D100C",
"V 	c #181112",
"W 	c #0A0707",
"X 	c #3F3537",
"Y 	c #765737",
"Z 	c #FFB14F",
"` 	c #FF9349",
" .	c #FDB25E",
"..	c #FBE24B",
"+.	c #FDDF49",
"@.	c #FEF651",
"#.	c #FFF855",
"$.	c #000100",
"%.	c #1A1718",
"&.	c #050405",
"*.	c #0E120F",
"=.	c #241D1F",
"-.	c #141011",
";.	c #050304",
">.	c #370D0A",
",.	c #902A23",
"'.	c #A74C29",
").	c #F84D1A",
"!.	c #FC4628",
"~.	c #14100D",
"{.	c #0E1914",
"].	c #0B0F0C",
"^.	c #0E0809",
"/.	c #0C0607",
"(.	c #0B0706",
"_.	c #140E0C",
":.	c #150E0B",
"<.	c #050A08",
"[.	c #09100D",
"}.	c #0E0E0D",
"|.	c #392B2A",
"1.	c #54423E",
"2.	c #020303",
"3.	c #030201",
"4.	c #24261E",
"5.	c #4A4940",
"6.	c #030203",
"7.	c #060706",
"8.	c #080A09",
"9.	c #1D1A14",
"0.	c #0D0B09",
"a.	c #040404",
"b.	c #2A2424",
"c.	c #342522",
"d.	c #2F201E",
"e.	c #3F302C",
"f.	c #030302",
"g.	c #1F191A",
"h.	c #393233",
"i.	c #3C2C2B",
"j.	c #392927",
"k.	c #342422",
"l.	c #010301",
"m.	c #08120C",
"n.	c #18201B",
"o.	c #2D2826",
"p.	c #030101",
"q.	c #312829",
"r.	c #3D3532",
"s.	c #3A423A",
"t.	c #3C4039",
"u.	c #090704",
"v.	c #2D282A",
"w.	c #020D06",
"x.	c #1B3B2A",
"y.	c #718377",
"z.	c #504B49",
"A.	c #1B0E0E",
"B.	c #27181C",
"C.	c #545253",
"D.	c #85A596",
"E.	c #5F8D77",
"F.	c #57514A",
"G.	c #5B4641",
"H.	c #969788",
"I.	c #000701",
"J.	c #042713",
"K.	c #0D3A24",
"L.	c #262B28",
"M.	c #0E0607",
"N.	c #3E3239",
"O.	c #8B8291",
"P.	c #ECF2F3",
"Q.	c #65907F",
"R.	c #6A6561",
"S.	c #3A2728",
"T.	c #6E7367",
"U.	c #020203",
"V.	c #0C0C0D",
"W.	c #022511",
"X.	c #0A3722",
"Y.	c #18211D",
"Z.	c #060102",
"`.	c #2B1E22",
" +	c #746D79",
".+	c #DFE7E9",
"++	c #5D8978",
"@+	c #5B5A57",
"#+	c #412F30",
"$+	c #726F64",
"%+	c #1D170E",
"&+	c #020202",
"*+	c #060505",
"=+	c #010903",
"-+	c #04180A",
";+	c #0B2918",
">+	c #212D25",
",+	c #1A1415",
"'+	c #090405",
")+	c #191214",
"!+	c #415C51",
"~+	c #557A6C",
"{+	c #446E5A",
"]+	c #46433E",
"^+	c #54413E",
"/+	c #7D7369",
"(+	c #010100",
"_+	c #010702",
":+	c #011708",
"<+	c #062A17",
"[+	c #20201F",
"}+	c #0C090A",
"|+	c #170F10",
"1+	c #516A63",
"2+	c #A1B3B2",
"3+	c #6C9082",
"4+	c #303532",
"5+	c #28191C",
"6+	c #423335",
"7+	c #747B6A",
"8+	c #000F03",
"9+	c #02230F",
"0+	c #0C0D0D",
"a+	c #191012",
"b+	c #456057",
"c+	c #86A19E",
"d+	c #5A8476",
"e+	c #252E2A",
"f+	c #1C0D0F",
"g+	c #312224",
"h+	c #6D7966",
"i+	c #211910",
"j+	c #000E03",
"k+	c #02210E",
"l+	c #0E0F0E",
"m+	c #170E0E",
"n+	c #385046",
"o+	c #718785",
"p+	c #48695D",
"q+	c #202421",
"r+	c #241515",
"s+	c #3D2D2E",
"t+	c #686758",
"u+	c #0C0907",
"v+	c #040201",
"w+	c #1A1414",
"x+	c #080505",
"y+	c #110A0B",
"z+	c #352D34",
"A+	c #93838D",
"B+	c #5F545E",
"C+	c #2A1F23",
"D+	c #211313",
"E+	c #251818",
"F+	c #261411",
"G+	c #502F28",
"H+	c #000001",
"I+	c #090406",
"J+	c #292229",
"K+	c #5C515E",
"L+	c #403844",
"M+	c #181016",
"N+	c #110808",
"O+	c #13090B",
"                                                              ",
"                                                              ",
"                                                              ",
"                                                              ",
"                                                          . + ",
"                            @ # $           % & * = - ; > , ' ",
"                        ) ! ~ { ] ^ / ( _ : < [ } | 1 2 3 4 5 ",
"                  6 7 8 9 0 a b c d 9 e f g h i j k l m n o p ",
"          q r s t u v w x y z A B C D E F G H I J | K L M N O ",
"          0 0 0 0 P Q R S T U V W 9 C X Y Z `  ...+.@.#.      ",
"          $.0 0 0 %.&.0 0 $.*.=.-.0 0 ;.>.,.'.).!.            ",
"        ~.0 0 0 0 0 v 0 0 0 {.].^./.(._.:.                    ",
"          0 0 0 0 0 0 0 0 0 <.[.}.|.1.                        ",
"          e 0 0 0 v 0 2.0 0 0 3.4.5.                          ",
"            t 0 6.0 0 7.8.9.                                  ",
"            0.0 s a.0 b.c.d.e.                                ",
"            f.0 0 g.0 h.i.j.k.                                ",
"            l.m.n.o.p.q.r.s.t.                                ",
"      u.v.0 w.x.y.z.A.B.C.D.E.F.G.H.                          ",
"      v %.0 I.J.K.L.M.N.O.P.Q.R.S.T.                          ",
"      U.V.0 I.W.X.Y.Z.`. +.+++@+#+$+                          ",
"    %+&+*+=+-+;+>+,+'+)+!+~+{+]+^+/+                          ",
"    (+0 0 _+:+<+[+}+p.|+1+2+3+4+5+6+7+                        ",
"    0 0 0 $.8+9+0+0 0 a+b+c+d+e+f+g+h+                        ",
"  i+0 0 0 T j+k+l+e p.m+n+o+p+q+r+s+t+                        ",
"u+v+0 0 0 0 0 8 w+x+p.y+z+A+B+C+D+E+F+G+                      ",
"  0 0 0 0 0 0 0 0 H+0 I+J+K+L+M+N+O+                          ",
"                                                              ",
"                                                              ",
"                                                              ",
"                                                              ",
"                                                              "};
